# xmcd CD database file
#
# Track frame offsets:
#	150
#	14428
#	36905
#	54318
#	68851
#	86625
#	96048
#	116286
#
# Disc length: 1819 seconds
#
# Revision: 1
# Processed by: cddbd v1.5.2PL0 Copyright (c) Steve Scherf et al.
# Submitted via: CDex 1.51
#
DISCID=5e071908
DTITLE=Hightide Blues - Love Come Easy
DYEAR=2008
DGENRE=Blues
TTITLE0=Katie, Can you Hear Me
TTITLE1=Far From Home
TTITLE2=Dreamin' Alone
TTITLE3=LetIt Roll
TTITLE4=Giving Up On You
TTITLE5=Merle's Last Stand
TTITLE6=Black Crows
TTITLE7=Dancing with the Angels
EXTD=YEAR: 2008
EXTT0=
EXTT1=
EXTT2=
EXTT3=
EXTT4=
EXTT5=
EXTT6=
EXTT7=
PLAYORDER=
